<?xml version="1.0" encoding="UTF-8"?>
<!-- Generator: visioncortex VTracer 0.6.5 -->
<svg viewBox="0 0 1461 1344" version="1.1" xmlns="http://www.w3.org/2000/svg" width="1461" height="1344" role="img" aria-label="icon"><title>icon</title>
<path d="M0,0 L173,0 L178,5 L190,35 L224,120 L232,140 L243,167 L264,220 L276,250 L288,280 L299,308 L309,332 L320,360 L335,397 L340,411 L345,422 L351,437 L358,451 L361,457 L362,458 L405,458 L418,457 L418,459 L404,466 L385,473 L351,485 L314,497 L278,507 L229,518 L190,525 L155,530 L137,532 L123,532 L118,529 L110,503 L103,477 L96,453 L92,437 L92,427 L97,422 L112,408 L128,391 L137,380 L148,367 L161,349 L171,334 L180,318 L188,301 L196,277 L198,266 L198,252 L194,232 L189,217 L181,201 L171,187 L160,176 L145,165 L129,157 L114,151 L100,148 L93,147 L78,147 L59,151 L44,157 L28,165 L16,174 L6,183 L-2,192 L-12,208 L-19,225 L-23,240 L-25,252 L-25,266 L-22,281 L-14,303 L-3,326 L9,345 L20,360 L31,374 L42,387 L53,399 L62,409 L70,417 L79,424 L81,427 L81,437 L76,456 L65,495 L58,523 L54,534 L51,536 L44,537 L-9,537 L-47,535 L-85,532 L-118,528 L-152,523 L-203,513 L-229,507 L-231,506 L-231,504 L-229,503 L-212,501 L-206,498 L-200,491 L-189,464 L-172,422 L-165,405 L-154,377 L-141,345 L-135,330 L-120,293 L-109,265 L-95,230 L-80,192 L-66,157 L-54,128 L-43,100 L-21,45 L-9,15 L-4,3 Z M80,207 L94,207 L109,212 L120,220 L127,228 L132,238 L135,249 L135,263 L131,277 L124,288 L114,297 L104,302 L93,305 L80,305 L66,301 L55,294 L46,284 L41,274 L38,263 L38,249 L42,235 L49,224 L59,215 L69,210 Z M563,375 L577,375 L580,377 L580,386 L575,392 L558,403 L539,415 L527,426 L516,440 L506,454 L499,460 L495,461 L492,459 L492,452 L494,447 L494,444 L486,445 L466,453 L455,457 L449,457 L448,456 L448,448 L439,435 L435,429 L434,423 L436,420 L444,420 L460,428 L462,429 L468,429 L507,403 L525,391 L541,381 L552,377 Z M420,478 L424,479 L422,485 L415,493 L406,508 L397,528 L395,537 L395,552 L406,582 L421,617 L431,641 L446,677 L451,689 L460,711 L476,749 L485,771 L497,799 L499,807 L496,811 L198,811 L192,809 L189,804 L184,785 L173,747 L160,701 L153,676 L143,641 L132,605 L130,593 L133,588 L172,580 L206,572 L243,561 L279,549 L311,537 L338,525 L363,513 L383,502 L400,492 L414,482 Z M-240,595 L-230,596 L-206,600 L-181,603 L-146,605 L-59,605 L-14,603 L37,599 L51,599 L52,601 L50,605 L41,612 L33,621 L27,639 L17,677 L6,720 L-9,779 L-16,807 L-21,812 L-328,812 L-330,810 L-329,803 L-321,784 L-310,758 L-298,729 L-281,688 L-261,639 L-250,612 L-244,597 Z " fill="currentColor" transform="translate(625,228)"/>
</svg>
